<?xml version="1.0" standalone="no"?>
<!DOCTYPE svg PUBLIC "-//W3C//DTD SVG 20010904//EN"
 "http://www.w3.org/TR/2001/REC-SVG-20010904/DTD/svg10.dtd">
<svg version="1.0" xmlns="http://www.w3.org/2000/svg"
 width="500.000000pt" height="500.000000pt" viewBox="0 0 500.000000 500.000000"
 preserveAspectRatio="xMidYMid meet">
<metadata>
Created by potrace 1.14, written by Peter Selinger 2001-2017
</metadata>
<g transform="translate(0.000000,500.000000) scale(0.100000,-0.100000)"
fill="#000000" stroke="none">
<path d="M3185 4959 c-15 -16 -32 -29 -37 -29 -4 0 -8 -7 -8 -16 0 -8 -4 -13
-9 -10 -5 4 -11 1 -13 -6 -4 -10 -10 -10 -31 -1 -17 8 -28 9 -33 2 -4 -6 -11
-5 -22 3 -12 10 -14 10 -8 1 6 -12 -11 -18 -36 -14 -5 0 -8 -3 -8 -9 0 -5 -7
-10 -15 -10 -8 0 -15 -5 -15 -12 0 -6 -3 -9 -6 -5 -10 10 -42 -36 -36 -52 3
-8 1 -12 -5 -8 -11 7 -12 -88 0 -99 4 -4 7 -16 7 -26 0 -11 5 -16 10 -13 6 3
10 -5 10 -19 0 -17 -5 -25 -17 -25 -49 0 -126 -21 -140 -38 -6 -8 -14 -14 -17
-14 -22 3 -27 -1 -22 -14 3 -8 2 -14 -3 -12 -10 3 -87 -76 -83 -87 1 -4 -2
-14 -9 -22 -6 -7 -8 -18 -4 -24 3 -5 2 -10 -3 -10 -5 0 -17 -12 -27 -26 -11
-18 -13 -24 -4 -19 16 9 -17 -32 -43 -55 -9 -8 -18 -22 -20 -30 -2 -8 -9 -21
-16 -28 -7 -8 -10 -17 -7 -22 3 -4 -2 -11 -11 -14 -10 -4 -13 -2 -8 7 6 9 4 9
-8 -1 -9 -7 -18 -9 -20 -5 -7 17 -64 41 -90 38 -16 -2 -30 1 -34 6 -3 5 -13 5
-24 -1 -13 -7 -21 -7 -25 0 -5 8 -11 8 -19 1 -7 -6 -16 -8 -19 -4 -4 3 -7 1
-7 -6 0 -7 -4 -9 -10 -6 -5 3 -10 2 -10 -3 0 -5 -7 -9 -15 -10 -8 -1 -22 -3
-30 -4 -8 -1 -15 -5 -15 -10 0 -4 -7 -8 -15 -8 -8 0 -15 -7 -15 -16 0 -8 -4
-12 -10 -9 -5 3 -10 2 -10 -4 0 -5 -9 -13 -21 -16 -11 -4 -18 -9 -16 -12 3 -2
-8 -17 -24 -32 -16 -15 -26 -31 -22 -34 3 -4 2 -7 -3 -7 -6 0 -16 -16 -24 -35
-8 -19 -18 -35 -23 -35 -5 0 -4 -7 3 -15 9 -11 9 -15 1 -15 -7 0 -11 -6 -10
-12 3 -28 -1 -39 -13 -32 -10 5 -10 4 -2 -5 7 -8 9 -25 4 -46 -5 -23 -3 -43 6
-60 7 -14 9 -23 4 -20 -6 4 -10 1 -10 -4 0 -6 5 -11 11 -11 5 0 8 -4 5 -8 -3
-5 8 -23 23 -40 16 -17 26 -33 24 -36 -3 -3 4 -3 16 -1 12 2 19 0 16 -6 -4 -5
2 -9 11 -9 14 0 15 -3 6 -12 -7 -7 -12 -19 -12 -28 0 -9 -9 -25 -20 -35 -11
-10 -17 -22 -14 -27 3 -4 2 -7 -3 -6 -5 2 -23 -12 -40 -29 -18 -18 -30 -33
-28 -33 3 0 -3 -8 -12 -18 -10 -11 -22 -17 -27 -14 -5 3 -6 0 -2 -6 4 -6 -2
-19 -14 -29 -11 -10 -20 -23 -20 -29 0 -7 -7 -15 -16 -18 -8 -3 -12 -10 -9
-16 3 -5 -1 -10 -9 -10 -9 0 -15 -3 -14 -7 0 -5 -2 -16 -7 -26 -6 -15 -10 -16
-16 -5 -6 9 -9 7 -9 -9 0 -12 -10 -31 -22 -43 -12 -11 -19 -20 -15 -20 4 0 -3
-12 -16 -26 -12 -14 -21 -28 -19 -31 2 -2 -6 -13 -17 -22 -11 -10 -18 -20 -16
-23 3 -2 -6 -15 -20 -28 -14 -13 -25 -30 -25 -37 0 -8 -7 -16 -15 -19 -8 -4
-12 -10 -9 -15 3 -5 0 -9 -6 -9 -6 0 -8 -4 -5 -10 3 -5 -3 -15 -14 -21 -11 -7
-17 -19 -13 -27 3 -10 1 -13 -6 -8 -10 6 -18 -8 -9 -17 1 -1 -8 -13 -20 -26
-12 -13 -20 -27 -18 -31 3 -5 -2 -11 -11 -14 -8 -3 -12 -10 -9 -16 3 -5 1 -10
-5 -10 -6 0 -8 -5 -4 -12 5 -7 2 -9 -8 -5 -11 4 -15 0 -14 -11 2 -9 -7 -25
-18 -35 -12 -10 -15 -16 -8 -12 6 3 12 2 12 -3 0 -6 -7 -13 -16 -16 -9 -4 -14
-13 -10 -21 3 -9 0 -15 -10 -15 -8 0 -12 -4 -9 -10 3 -5 1 -10 -4 -10 -6 0
-11 -3 -10 -7 2 -16 -14 -53 -23 -53 -6 0 -8 -6 -5 -14 3 -8 -1 -17 -9 -20 -9
-3 -12 -10 -9 -16 3 -5 1 -10 -4 -10 -6 0 -10 -3 -10 -7 3 -16 -23 -73 -31
-68 -4 3 -6 -4 -3 -15 3 -11 1 -20 -5 -20 -6 0 -9 -11 -8 -24 2 -16 -1 -23 -9
-20 -9 4 -12 -4 -10 -25 1 -17 -1 -28 -6 -26 -8 6 -34 -69 -32 -92 0 -7 -3
-13 -9 -13 -5 0 -6 -4 -3 -10 3 -5 2 -10 -3 -10 -5 0 -8 -13 -7 -30 1 -16 -1
-28 -5 -25 -10 6 -18 -14 -15 -43 1 -12 -2 -22 -7 -22 -4 0 -8 -7 -8 -15 0 -8
-4 -15 -10 -15 -5 0 -7 -7 -4 -15 4 -8 3 -23 -1 -32 -10 -22 -16 -44 -17 -60
-1 -7 -6 -13 -11 -13 -6 0 -8 -3 -4 -6 3 -3 1 -18 -4 -34 -8 -23 -16 -28 -39
-26 -17 1 -26 -2 -23 -8 4 -5 -1 -7 -10 -3 -10 3 -17 2 -17 -3 0 -13 -37 -50
-43 -43 -3 3 -3 -5 0 -18 4 -15 3 -20 -5 -15 -11 7 -18 -21 -13 -48 1 -5 -5
-3 -14 4 -9 7 -15 9 -14 4 6 -26 -48 -94 -75 -94 -9 0 -19 -6 -22 -14 -3 -8
-15 -16 -26 -19 -13 -4 -17 -10 -12 -18 4 -7 3 -10 -3 -6 -10 6 -59 -25 -75
-48 -5 -6 -8 -6 -8 0 0 6 -7 -1 -15 -15 -8 -14 -14 -22 -15 -18 0 5 -25 -17
-56 -48 -44 -43 -54 -58 -43 -65 12 -7 12 -9 -1 -9 -9 0 -11 -3 -5 -8 16 -11
19 -46 3 -36 -10 6 -11 5 -1 -7 11 -14 14 -99 3 -99 -3 0 -7 -8 -8 -17 -3 -30
-7 -48 -13 -58 -4 -5 -5 -18 -4 -28 2 -9 0 -17 -4 -17 -7 0 -9 -7 -13 -50 -1
-11 -6 -20 -10 -20 -4 0 -8 -5 -8 -11 0 -5 6 -7 13 -3 6 4 3 -2 -7 -14 -14
-17 -16 -22 -5 -22 12 0 12 -2 0 -9 -7 -5 -10 -14 -7 -20 4 -6 3 -11 -2 -11
-6 0 -10 -10 -10 -22 0 -13 -3 -34 -7 -47 -7 -19 -5 -22 6 -16 8 5 7 0 -4 -12
-9 -11 -14 -23 -10 -27 4 -4 1 -11 -7 -16 -8 -6 -10 -10 -4 -10 6 0 11 -7 11
-15 0 -8 -3 -15 -6 -15 -4 0 -7 -20 -8 -45 -1 -25 -7 -55 -14 -66 -8 -16 -8
-20 1 -14 9 6 9 2 1 -14 -7 -13 -8 -21 -2 -21 6 0 8 -7 5 -15 -4 -8 -11 -12
-18 -8 -6 4 -6 0 2 -9 9 -11 10 -18 2 -23 -6 -3 -7 -11 -4 -17 10 -15 12 -78
3 -73 -10 7 1 -37 14 -53 7 -9 6 -11 -8 -6 -15 6 -16 4 -6 -14 9 -17 9 -22 -1
-22 -9 0 -9 -3 2 -10 9 -6 11 -10 3 -10 -7 0 -11 -6 -9 -13 13 -40 16 -68 7
-63 -6 4 -7 -4 -3 -21 4 -16 7 -57 7 -93 0 -36 4 -68 8 -71 5 -4 4 -16 -2 -27
-8 -15 -8 -21 2 -25 9 -3 9 -8 -2 -21 -12 -14 -12 -17 -1 -14 9 2 14 -7 13
-28 l0 -31 1666 2 c916 1 1668 2 1670 3 2 1 -2 9 -9 17 -7 8 -8 15 -3 15 11 0
11 30 -1 48 -4 7 -6 16 -3 18 3 3 1 19 -3 35 -6 19 -5 29 2 29 6 0 3 10 -8 22
-10 12 -13 18 -6 14 15 -9 16 16 1 31 -8 8 -8 13 0 17 8 5 8 13 0 28 -8 15 -8
19 0 14 6 -4 11 -2 11 3 0 6 -4 11 -9 11 -4 0 -8 24 -8 52 -1 101 -8 168 -18
168 -5 0 -3 5 5 10 8 5 10 10 5 10 -6 0 -10 17 -10 37 1 21 -3 46 -8 57 -6 12
-6 16 1 12 12 -7 10 32 -2 52 -4 7 -2 12 4 12 7 0 8 7 3 17 -5 10 -8 30 -7 46
0 15 -4 27 -10 27 -7 0 -8 3 -1 8 11 7 15 122 5 122 -4 0 -4 16 -2 35 2 19 0
41 -5 48 -5 6 -8 22 -7 34 0 13 -4 23 -10 23 -7 0 -7 3 -1 8 15 11 18 55 2 46
-6 -4 -4 1 5 12 14 16 15 23 5 33 -9 10 -9 12 2 9 9 -2 14 8 16 30 1 17 -3 32
-9 32 -7 0 -6 4 1 8 20 13 -13 52 -43 52 -14 0 -22 4 -19 10 3 5 1 10 -5 10
-6 0 -8 6 -4 13 4 6 4 9 -1 5 -4 -4 -14 -3 -22 3 -7 6 -13 8 -13 5 0 -4 -11 4
-23 18 -13 14 -27 23 -30 20 -3 -3 -8 4 -12 15 -4 12 -12 18 -21 14 -8 -3 -14
1 -14 11 0 9 -6 16 -12 16 -7 0 -28 16 -47 35 -19 19 -38 32 -42 29 -5 -3 -6
2 -3 10 3 9 -2 17 -15 21 -12 3 -21 13 -21 21 0 8 -4 13 -8 10 -4 -2 -14 4
-21 16 -10 16 -10 19 1 12 11 -6 11 -5 0 8 -7 9 -12 25 -10 35 2 11 -2 17 -11
15 -8 -2 -11 3 -8 12 4 10 -4 19 -24 28 -16 7 -29 16 -29 20 0 5 -5 7 -11 5
-6 -1 -18 8 -26 21 -14 20 -14 22 2 22 10 0 15 3 12 6 -4 4 3 15 14 25 11 9
19 20 17 22 -2 3 7 17 19 30 12 14 19 28 17 31 -2 3 -1 4 3 1 3 -3 13 1 22 8
14 11 14 10 2 -5 -7 -10 -10 -18 -7 -18 4 0 2 -9 -4 -20 -8 -15 -8 -20 2 -20
9 0 9 -3 -2 -10 -8 -5 -10 -10 -4 -10 6 0 17 7 24 15 10 12 10 15 -1 15 -8 1
0 7 16 15 17 7 26 14 22 14 -5 1 16 25 46 55 31 30 53 57 50 60 -4 3 -1 6 5 6
6 0 18 7 27 17 14 14 18 14 26 2 5 -8 9 -9 9 -4 0 6 4 4 9 -3 4 -7 17 -15 27
-16 10 -2 18 -8 17 -14 -1 -6 5 -9 15 -7 9 1 23 -3 31 -9 12 -9 13 -8 6 4 -7
12 -6 13 6 4 8 -6 25 -11 38 -12 13 0 27 -6 31 -12 5 -8 10 -6 14 6 6 16 8 16
16 4 7 -11 10 -12 10 -2 0 7 5 10 10 7 6 -4 18 -1 27 7 12 9 15 9 9 1 -5 -9
-2 -11 8 -7 9 3 16 11 16 18 0 8 3 7 8 -1 6 -10 14 -9 36 2 15 8 32 12 37 9 5
-3 9 0 9 6 0 6 4 9 8 6 5 -3 19 4 30 15 12 11 22 17 22 14 0 -3 8 3 18 13 11
9 31 26 45 36 15 10 27 25 27 33 0 8 3 12 8 10 9 -5 42 30 34 37 -3 3 0 6 7 6
7 0 9 5 6 10 -3 6 2 10 11 10 10 0 14 3 11 7 -4 3 -1 13 6 21 10 13 9 14 -3 7
-13 -8 -13 -6 -2 8 16 18 14 95 -2 116 -9 12 -8 13 2 7 11 -7 12 -4 3 12 -6
12 -16 24 -21 27 -7 4 -6 13 0 26 6 11 15 17 21 14 5 -4 9 -1 9 5 0 6 4 9 8 6
5 -3 16 4 25 15 9 10 24 19 32 19 8 0 15 5 15 11 0 6 7 8 16 5 8 -3 12 -2 9 4
-6 9 8 14 28 11 4 0 7 4 7 11 0 6 3 9 6 5 4 -3 13 1 21 9 8 8 19 12 24 9 5 -4
9 -2 9 4 0 5 11 8 24 7 18 -2 23 1 18 12 -3 10 -1 13 6 8 12 -7 92 64 92 82 0
7 6 12 13 12 6 0 18 13 25 30 8 16 17 29 20 28 19 -3 71 16 66 23 -3 5 0 9 6
9 7 0 23 9 37 20 14 11 23 20 19 20 -4 0 4 15 18 33 20 26 23 36 13 46 -9 10
-8 11 6 5 13 -4 16 -2 12 9 -4 8 0 21 8 28 14 14 17 22 17 39 0 6 8 10 18 10
14 0 15 2 2 10 -13 8 -12 10 3 10 9 0 17 7 17 15 0 8 5 15 11 15 5 0 7 5 4 10
-3 6 -2 10 3 10 9 0 11 8 13 58 1 15 6 33 13 41 8 11 8 15 -1 18 -7 3 -13 9
-13 14 0 6 3 8 8 5 10 -6 8 106 -3 123 -6 10 -4 12 4 6 10 -6 11 -3 2 14 -7
11 -9 21 -6 21 3 0 2 8 -4 17 -7 14 -3 21 18 34 24 15 28 23 26 63 -1 43 -27
86 -52 86 -5 0 -15 9 -23 19 -7 11 -17 18 -21 15 -4 -2 -10 0 -14 6 -3 5 -14
10 -23 10 -11 0 -18 8 -18 20 0 11 6 20 14 20 7 0 10 5 7 10 -3 6 0 13 9 16 8
3 12 12 9 20 -3 8 -2 14 3 12 5 -2 10 1 11 6 1 5 6 12 11 15 6 3 12 13 14 20
2 8 9 22 16 30 7 9 13 21 13 26 0 6 5 15 9 20 6 7 2 15 -10 23 -11 7 -21 8
-25 2 -3 -5 -13 -6 -22 -3 -10 4 -14 2 -9 -5 3 -6 -3 -13 -14 -17 -11 -3 -20
-11 -20 -16 0 -6 -4 -7 -10 -4 -5 3 -10 1 -10 -6 0 -9 -3 -9 -14 1 -11 8 -12
18 -5 36 6 17 6 23 -1 19 -6 -3 -10 2 -10 12 0 11 -6 25 -12 32 -11 11 -10 12
1 6 9 -5 5 6 -8 23 -12 18 -27 30 -32 27 -5 -4 -9 2 -9 12 0 15 -2 16 -10 3
-8 -12 -10 -11 -10 7 0 12 -10 29 -22 38 -13 8 -21 19 -19 23 2 4 -14 16 -35
27 -22 11 -41 21 -43 22 -6 4 5 14 21 17 7 2 25 6 40 10 34 10 88 14 83 6 -2
-3 8 -10 21 -17 13 -6 22 -7 18 -2 -3 5 -2 9 1 9 9 0 31 -23 38 -40 3 -8 5 -3
4 13 -1 15 -5 27 -10 27 -4 0 -5 4 -2 10 3 6 -1 7 -9 4 -9 -3 -16 -2 -16 3 0
8 -15 12 -57 15 -7 1 -13 6 -13 12 0 6 -4 5 -9 -2 -4 -8 -12 -14 -16 -14 -4 0
-12 6 -16 14 -7 10 -9 10 -9 0 0 -7 -4 -10 -10 -7 -5 3 -10 2 -10 -4 0 -6 -7
-7 -17 -4 -12 5 -14 3 -8 -7 5 -8 4 -11 -1 -7 -6 3 -9 33 -8 67 2 58 -15 118
-29 103 -10 -9 -9 -53 1 -53 4 0 8 -9 9 -20 1 -13 -2 -18 -9 -14 -7 4 -8 2 -4
-5 4 -6 1 -24 -7 -41 -11 -21 -12 -30 -3 -34 6 -2 3 -5 -6 -5 -10 -1 -18 -7
-18 -13 0 -9 -3 -8 -9 2 -6 8 -8 17 -5 21 2 4 -2 10 -8 12 -10 4 -10 6 0 6 10
1 10 5 -2 17 -9 8 -14 19 -12 23 3 4 -4 13 -14 21 -10 8 -16 18 -13 23 3 6 1
7 -5 3 -6 -3 -15 2 -21 11 -8 14 -10 15 -11 3 0 -13 -1 -13 -10 0 -5 8 -17 15
-27 15 -14 0 -17 10 -17 65 -1 50 -5 68 -18 78 -10 7 -18 21 -18 30 0 10 -9
24 -20 32 -11 8 -20 20 -20 28 0 7 -4 10 -10 7 -5 -3 -10 1 -10 9 0 8 -9 18
-20 21 -11 3 -20 11 -20 16 0 5 -7 9 -16 9 -8 0 -13 3 -11 8 3 4 -5 16 -16 27
-11 12 -17 14 -13 5 5 -9 2 -8 -7 3 -8 9 -18 17 -23 17 -5 0 -16 9 -24 19 -7
11 -17 18 -22 15 -4 -3 -8 1 -8 8 0 9 -3 9 -10 -2 -8 -13 -10 -12 -10 3 0 10
-8 17 -19 17 -11 0 -23 5 -27 12 -4 7 -3 8 4 4 7 -4 12 -3 12 2 0 5 11 7 25 4
14 -2 25 -7 25 -11 0 -4 8 -7 18 -7 25 -1 46 -8 53 -17 3 -4 16 -9 27 -10 12
-1 24 -8 27 -17 3 -9 15 -17 27 -17 13 -1 24 -7 26 -13 2 -5 10 -10 18 -10 8
0 14 -8 14 -17 0 -9 3 -14 6 -10 7 7 34 -15 28 -24 -2 -3 4 -6 12 -6 14 0 11
5 -42 64 -7 6 -14 9 -18 6 -3 -4 -6 2 -6 12 0 10 -3 15 -6 12 -4 -4 -20 5 -36
18 -16 14 -34 23 -39 19 -5 -3 -9 0 -9 5 0 6 -6 10 -12 8 -7 -1 -12 3 -11 10
1 6 -5 10 -15 8 -9 -1 -22 2 -29 7 -7 5 -18 6 -24 2 -7 -4 -9 -3 -6 3 4 6 0
13 -8 17 -8 3 -17 1 -21 -5 -4 -6 -10 -7 -17 0 -12 9 -60 8 -87 -3 -11 -5 -16
-1 -16 14 0 11 4 20 9 20 4 0 5 5 2 10 -3 6 1 13 9 16 9 3 13 10 10 15 -3 6 0
17 8 26 9 12 9 15 1 9 -7 -4 -13 -3 -13 2 0 5 -8 8 -17 7 -27 -3 -93 -37 -87
-46 2 -4 -4 -10 -13 -14 -10 -3 -30 -22 -45 -41 -25 -34 -27 -34 -37 -15 -6
11 -11 24 -10 28 1 4 0 10 -1 13 -7 18 -7 69 1 65 5 -4 6 1 3 9 -4 10 -1 16 7
16 11 0 11 3 -1 10 -8 5 -10 10 -4 10 7 0 15 7 18 16 4 9 2 13 -5 8 -6 -3 -3
6 6 20 15 23 16 30 5 51 -10 18 -17 22 -26 14 -8 -7 -14 -6 -17 3 -4 10 -6 10
-6 1 -1 -7 -8 -13 -16 -13 -24 0 -81 -36 -113 -72 -9 -9 -19 -15 -24 -12 -5 3
-7 2 -6 -3 4 -13 -44 -73 -54 -67 -4 3 -5 11 -1 17 4 7 8 17 8 22 1 6 6 9 13
8 6 -2 9 4 5 13 -3 8 3 24 13 34 41 41 46 50 32 54 -28 9 -77 12 -72 4 3 -4
-1 -9 -8 -10 -28 -3 -34 -5 -73 -29 -22 -13 -44 -23 -48 -21 -5 1 -6 -1 -3 -6
3 -5 -5 -15 -18 -22 -13 -7 -29 -23 -36 -36 -7 -13 -16 -21 -20 -19 -5 3 -11
-2 -14 -11 -4 -10 -2 -13 7 -8 6 4 3 -2 -7 -14 -11 -12 -20 -22 -21 -22 -7 0
6 64 15 75 6 8 9 19 5 25 -3 5 -1 10 5 10 6 0 15 12 20 26 6 14 15 22 20 19 6
-4 9 -1 8 7 -2 7 3 12 10 10 8 -1 11 1 9 5 -6 10 19 34 27 26 3 -4 6 3 6 15 0
12 -4 22 -10 22 -5 0 -10 -5 -10 -11 0 -6 -6 -9 -12 -7 -14 5 -50 -27 -40 -36
3 -3 0 -6 -7 -6 -17 0 -38 -23 -43 -46 -2 -11 -11 -19 -23 -19 -16 0 -19 6
-16 30 1 17 8 33 15 37 8 5 7 8 -3 8 -10 0 -11 3 -3 13 8 9 6 16 -6 24 -14 8
-23 5 -47 -18z m-97 -113 c-7 -11 -11 -25 -10 -29 1 -5 -2 -6 -7 -3 -5 3 -16
-6 -25 -19 -9 -14 -21 -23 -27 -20 -5 4 -9 3 -7 -2 3 -13 -13 -73 -20 -73 -4
0 -7 -11 -7 -25 0 -14 2 -25 5 -25 3 0 6 -8 6 -18 0 -10 -6 -19 -13 -19 -7 0
-13 6 -13 14 0 7 -5 13 -11 13 -6 0 -9 6 -6 14 3 8 -1 17 -10 20 -8 4 -13 13
-9 21 3 8 0 15 -7 15 -8 0 -6 4 3 10 8 5 10 10 5 10 -6 0 -11 9 -11 20 0 11 4
20 9 20 5 0 4 7 -3 15 -8 9 -8 15 -2 15 6 0 14 9 17 20 4 11 11 18 16 15 5 -4
9 -1 9 6 0 7 3 10 6 6 4 -3 13 0 20 8 8 8 23 12 34 10 11 -2 20 0 20 4 0 5 11
6 25 3 22 -4 23 -7 13 -26z m162 -7 c0 -5 -4 -9 -9 -9 -4 0 -7 -12 -5 -27 2
-27 2 -27 -12 -9 -9 12 -10 24 -5 29 5 5 7 16 4 23 -4 10 0 12 11 8 9 -3 16
-10 16 -15z"/>
<path d="M4710 3990 c-9 -6 -10 -10 -3 -10 6 0 15 5 18 10 8 12 4 12 -15 0z"/>
</g>
</svg>
